Coordinates
version=1
nRows=4
nColumns=63
inDegrees=yes

Units are S.I. units (second, meters, Newtons, ...)
If the header above contains a line with 'inDegrees', this indicates whether rotational values are in degrees (yes) or radians (no).

endheader
time	pelvis_tilt	pelvis_list	pelvis_rotation	pelvis_tx	pelvis_ty	pelvis_tz	hip_flexion_r	hip_adduction_r	hip_rotation_r	knee_angle_r	knee_angle_r_beta	ankle_angle_r	subtalar_angle_r	mtp_angle_r	hip_flexion_l	hip_adduction_l	hip_rotation_l	knee_angle_l	knee_angle_l_beta	ankle_angle_l	subtalar_angle_l	mtp_angle_l	L5_S1_Flex_Ext	L5_S1_Lat_Bending	L5_S1_axial_rotation	L4_L5_Flex_Ext	L4_L5_Lat_Bending	L4_L5_axial_rotation	L3_L4_Flex_Ext	L3_L4_Lat_Bending	L3_L4_axial_rotation	L2_L3_Flex_Ext	L2_L3_Lat_Bending	L2_L3_axial_rotation	L1_L2_Flex_Ext	L1_L2_Lat_Bending	L1_L2_axial_rotation	L1_T12_Flex_Ext	L1_T12_Lat_Bending	L1_T12_axial_rotation	Abs_r3	Abs_r2	Abs_r1	Abs_t1	Abs_t2	neck_flexion	neck_bending	neck_rotation	arm_flex_r	arm_add_r	arm_rot_r	elbow_flex_r	pro_sup_r	wrist_flex_r	wrist_dev_r	arm_flex_l	arm_add_l	arm_rot_l	elbow_flex_l	pro_sup_l	wrist_flex_l	wrist_dev_l
      3.46666667	     -4.95433820	    -13.47387007	     80.93943475	      0.29993675	      0.83021771	      0.69255533	      9.98001312	      1.61674084	     -6.44698487	      7.07687819	      0.12351483	     22.04176102	     -1.02230996	      0.00000000	      8.38525901	     -3.60752592	     -4.04550218	      8.11254883	      0.14159069	     25.43274148	      7.87251723	      0.00000000	     -0.00212720	      0.01885859	     -4.71450418	     -0.00395042	      0.02508192	     -5.00916069	     -0.00349477	      0.04585277	     -5.00916069	     -0.00243117	      0.04585277	     -4.12519116	     -0.00197531	      0.03845644	     -3.83053465	     -0.00121548	      0.02921195	     -3.53587813	     -0.01519435	      0.21333213	    -26.22065789	      0.00000000	      0.00000000	     27.11446891	      3.83839166	     -0.72356680	     25.13766672	      1.29124766	     21.66233951	    144.73598500	     89.26846373	     10.62767247	     -3.19449013	      0.14641198	    -15.10015579	     31.44240947	     28.29369737	     87.01772679	    -22.56887170	     -9.71861101
      3.48333333	     -4.91974997	    -13.51466915	     81.18652116	      0.29979392	      0.83043137	      0.69201551	      9.95275860	      1.62308930	     -6.52555427	      7.05950148	      0.12321154	     22.11432793	     -1.13175447	      0.00000000	      8.34713395	     -3.59744322	     -3.97819597	      7.97296115	      0.13915442	     25.37325116	      7.82027213	      0.00000000	      0.01890025	      0.01129231	     -4.62085046	      0.03509966	      0.01501877	     -4.90965361	      0.03105123	      0.02745612	     -4.90965361	      0.02160110	      0.02745612	     -4.04324415	      0.01755078	      0.02302728	     -3.75444100	      0.01079961	      0.01749179	     -3.46563784	      0.13500263	      0.12774087	    -25.69978400	      0.00000000	      0.00000000	     27.17945196	      4.12692869	     -1.17194288	     23.47367721	      1.27254352	     22.22624312	    145.70671854	     89.22524794	     10.49444825	     -3.59191458	      0.14691446	    -14.86907513	     31.10300272	     28.09038516	     86.61049909	    -22.48148021	     -9.62593091
      3.50000000	     -4.95033659	    -13.52963945	     81.32756904	      0.29956729	      0.83052587	      0.69152012	      9.93006706	      1.55650828	     -6.49936046	      7.06483005	      0.12330455	     22.43845869	     -1.25067960	      0.00000000	      8.26912440	     -3.50329079	     -3.97250155	      7.78621349	      0.13589506	     25.36676469	      7.66043397	      0.00000000	      0.04055902	     -0.00385275	     -4.49046687	      0.07532215	     -0.00512416	     -4.77112105	      0.06663441	     -0.00936758	     -4.77112105	      0.04635490	     -0.00936758	     -3.92915851	      0.03766311	     -0.00785653	     -3.64850433	      0.02317542	     -0.00596791	     -3.36785015	      0.28970902	     -0.04358308	    -24.97462958	      0.00000000	      0.00000000	     27.13443571	      4.32196690	     -1.89172686	     22.55632899	      0.95199957	     22.87587820	    146.40922957	     89.17356519	     10.35259712	     -3.88468449	      0.18379249	    -14.64079018	     30.71803312	     27.86140052	     86.05756133	    -22.19137120	     -9.60371461
      3.51666667	     -5.13878522	    -13.50387621	     80.50470775	      0.30009097	      0.83043972	      0.69156005	     10.07396719	      1.44233858	     -5.61502506	      7.30053120	      0.12741831	     22.84292108	     -1.19650612	      0.00000000	      7.99681772	     -3.30001857	     -4.29911640	      7.41758222	      0.12946123	     25.16475777	      6.56872328	      0.00000000	      0.05980014	     -0.03751611	     -4.10695835	      0.11105483	     -0.04989643	     -4.36364325	      0.09824564	     -0.09121667	     -4.36364325	      0.06834558	     -0.09121667	     -3.59358856	      0.05553041	     -0.07650285	     -3.33690366	      0.03416980	     -0.05811245	     -3.08021876	      0.42714640	     -0.42438974	    -22.84167025	      0.00000000	      0.00000000	     26.98359863	      3.62394261	     -4.10398668	     22.49553572	      0.49499161	     23.65427116	    146.82294971	     89.12382542	      9.04194983	     -3.55090816	      0.46876742	    -14.43660355	     30.25308038	     27.51997075	     84.73830215	    -20.24222916	    -10.38713334
